<svg role="img" x="0px" y="0px" width="24px" height="24px" viewBox="0 0 24 24" style="enable-background:new 0 0 24 24;"><circle style="fill:#000000;" cx="12" cy="12" r="12"></circle><g><g><path style="" d="M15.5,11.122c-1.026-1.036-2.007-2.026-2.986-3.017c-0.385-0.39-0.413-0.895-0.075-1.251
c0.361-0.381,0.886-0.371,1.296,0.037c1.136,1.131,2.267,2.266,3.401,3.399c0.346,0.346,0.694,0.69,1.037,1.038
c0.425,0.43,0.431,0.921,0.01,1.343c-1.462,1.466-2.926,2.931-4.392,4.393c-0.384,0.383-0.898,0.398-1.253,0.053
c-0.366-0.357-0.356-0.877,0.038-1.273c0.925-0.929,1.855-1.854,2.786-2.778c0.051-0.051,0.122-0.081,0.183-0.121
c-0.014-0.035-0.027-0.069-0.041-0.104c-0.115,0-0.229,0-0.344,0c-2.841,0-5.683,0-8.524-0.001c-0.135,0-0.271-0.001-0.405-0.018
c-0.438-0.056-0.738-0.419-0.726-0.868c0.012-0.442,0.34-0.795,0.776-0.829c0.114-0.009,0.229-0.004,0.343-0.004
c2.821,0,5.641,0,8.462,0C15.208,11.122,15.33,11.122,15.5,11.122z" fill="#FFFFFF"></path></g></g></svg>